<?xml version="1.0" standalone="no"?>
<!DOCTYPE svg PUBLIC "-//W3C//DTD SVG 20010904//EN"
 "http://www.w3.org/TR/2001/REC-SVG-20010904/DTD/svg10.dtd">
<svg version="1.0" xmlns="http://www.w3.org/2000/svg"
 width="512.000000pt" height="512.000000pt" viewBox="0 0 512.000000 512.000000"
 preserveAspectRatio="xMidYMid meet">

<g transform="translate(0.000000,512.000000) scale(0.100000,-0.100000)"
fill="#000000" stroke="none">
<path d="M1040 4802 c-63 -5 -173 -34 -245 -64 -260 -112 -433 -342 -475 -633
-8 -58 -10 -499 -8 -1595 l4 -1515 22 -84 c80 -299 332 -533 632 -587 111 -20
3069 -20 3180 0 194 35 384 153 505 316 45 60 104 187 127 273 l22 82 3 1524
c4 1661 5 1615 -52 1768 -102 270 -334 459 -625 509 -40 7 -3004 13 -3090 6z
m2844 -592 c142 -22 244 -95 285 -206 39 -104 42 -184 39 -1064 -3 -771 -5
-850 -21 -905 -66 -223 -184 -275 -629 -275 l-188 0 0 -52 c-1 -165 -12 -433
-21 -493 -28 -194 -130 -288 -341 -315 -104 -13 -1654 -13 -1754 0 -207 27
-301 120 -336 333 -17 108 -18 1707 0 1800 35 185 129 279 307 307 39 6 167
12 286 14 119 2 222 6 228 10 7 5 11 73 11 214 0 320 21 433 96 521 60 70 149
105 314 125 76 9 1657 -4 1724 -14z"/>
<path d="M2398 3779 c-150 -15 -213 -76 -224 -217 -3 -37 -7 -92 -9 -122 -2
-30 -4 -162 -5 -292 l0 -238 -310 0 c-180 0 -330 -4 -358 -11 -62 -13 -123
-63 -148 -121 -18 -40 -19 -83 -22 -657 -2 -419 1 -630 8 -667 16 -76 45 -114
115 -149 l60 -30 615 0 c567 0 619 1 669 18 72 24 107 52 134 106 21 44 22 59
27 396 l5 349 275 2 c151 1 304 5 339 8 117 12 178 53 208 140 17 47 18 103
18 671 0 569 -1 624 -18 670 -34 95 -83 130 -204 145 -90 12 -1057 11 -1175
-1z m1000 -342 c21 -11 41 -34 53 -60 17 -39 19 -70 19 -412 0 -339 -2 -373
-19 -411 -13 -28 -30 -46 -57 -60 -36 -17 -70 -19 -399 -24 l-360 -5 -5 -375
c-5 -394 -5 -395 -53 -447 -35 -39 -98 -45 -472 -41 -331 3 -352 4 -385 23
-19 12 -43 36 -55 55 -19 34 -20 51 -20 415 0 364 1 381 20 415 12 19 36 43
55 55 33 19 54 20 390 23 204 2 359 7 364 13 6 5 11 156 13 359 2 353 8 409
41 449 38 47 71 51 467 48 336 -2 373 -4 403 -20z"/>
</g>
</svg>
